<svg width="24" height="24" viewBox="0 0 24 24" xmlns="http://www.w3.org/2000/svg">
  <path d="M3.5 7.25C3.5 6.56 4.06 6 4.75 6H9.4C9.83 6 10.24 6.19 10.52 6.51L11.45 7.6C11.69 7.87 12.03 8.03 12.39 8.03H19.25C19.94 8.03 20.5 8.59 20.5 9.28V17.25C20.5 17.94 19.94 18.5 19.25 18.5H4.75C4.06 18.5 3.5 17.94 3.5 17.25V7.25Z" fill="#D2A65C"/>
  <path d="M3.5 9.1C3.5 8.41 4.06 7.85 4.75 7.85H19.25C19.94 7.85 20.5 8.41 20.5 9.1V17.25C20.5 17.94 19.94 18.5 19.25 18.5H4.75C4.06 18.5 3.5 17.94 3.5 17.25V9.1Z" fill="#E3BE7A"/>
  <path d="M4.75 7.85H19.25C19.94 7.85 20.5 8.41 20.5 9.1V17.25C20.5 17.94 19.94 18.5 19.25 18.5H4.75C4.06 18.5 3.5 17.94 3.5 17.25V9.1C3.5 8.41 4.06 7.85 4.75 7.85Z" fill="none" stroke="#916C32" stroke-width="1.2"/>
</svg>

